<svg xmlns="http://www.w3.org/2000/svg" xmlns:xlink="http://www.w3.org/1999/xlink"><defs>
<clipPath id="clip0_205_51">
<rect width="24" height="24" fill=""/>
</clipPath>
</defs><symbol id="mail" viewBox="0 0 19 13"><g fill="none">
<path d="M17.4429 0H1.2429C0.745837 0 0.342899 0.415729 0.342899 0.928571V12.0714C0.342337 12.2665 0.402112 12.4567 0.513599 12.6143C0.682574 12.8563 0.953887 12.9997 1.2429 13H17.4429C17.7315 12.9998 18.0025 12.8568 18.1716 12.6156C18.2833 12.4576 18.3434 12.267 18.3429 12.0714V0.928571C18.3429 0.415729 17.94 0 17.4429 0ZM0.942899 11.8941V2.03543L7.1274 6.96429L0.942899 11.8941ZM1.3134 12.381L7.6179 7.35552L8.793 8.29152C9.11696 8.54951 9.56883 8.54951 9.8928 8.29152L11.0679 7.35552L17.3724 12.381H1.3134ZM17.7429 11.8941L11.5584 6.96429L17.7429 2.03543V11.8941ZM17.7429 1.25326L9.5262 7.80155C9.4182 7.88756 9.2676 7.88756 9.1596 7.80155L0.942899 1.25326V0.928571C0.942899 0.757637 1.07722 0.619048 1.2429 0.619048H17.4429C17.6086 0.619048 17.7429 0.757637 17.7429 0.928571V1.25326Z" fill="white"/>
</g></symbol><symbol id="mail_active" viewBox="0 0 19 13"><g fill="none">
<path d="M17.4429 0H1.2429C0.745837 0 0.342899 0.415729 0.342899 0.928571V12.0714C0.342337 12.2665 0.402112 12.4567 0.513599 12.6143C0.682574 12.8563 0.953887 12.9997 1.2429 13H17.4429C17.7315 12.9998 18.0025 12.8568 18.1716 12.6156C18.2833 12.4576 18.3434 12.267 18.3429 12.0714V0.928571C18.3429 0.415729 17.94 0 17.4429 0ZM0.942899 11.8941V2.03543L7.1274 6.96429L0.942899 11.8941ZM1.3134 12.381L7.6179 7.35552L8.793 8.29152C9.11696 8.54951 9.56883 8.54951 9.8928 8.29152L11.0679 7.35552L17.3724 12.381H1.3134ZM17.7429 11.8941L11.5584 6.96429L17.7429 2.03543V11.8941ZM17.7429 1.25326L9.5262 7.80155C9.4182 7.88756 9.2676 7.88756 9.1596 7.80155L0.942899 1.25326V0.928571C0.942899 0.757637 1.07722 0.619048 1.2429 0.619048H17.4429C17.6086 0.619048 17.7429 0.757637 17.7429 0.928571V1.25326Z" fill="#43E8FF"/>
</g></symbol><symbol id="phone" viewBox="0 0 16 16"><g fill="none">
<path d="M15.5802 12.3426L12.3417 10.1829C11.9307 9.91104 11.3798 10.0005 11.076 10.3885L10.1327 11.6013C10.0114 11.7612 9.79107 11.8076 9.61569 11.7101L9.43625 11.6112C8.8414 11.287 8.10126 10.8833 6.61001 9.39155C5.11876 7.89977 4.71429 7.15907 4.39006 6.56531L4.29167 6.38587C4.1929 6.21052 4.23839 5.98921 4.39831 5.86701L5.61038 4.92396C5.9982 4.6201 6.08778 4.06937 5.81622 3.65827L3.65654 0.419815C3.37824 0.00118918 2.81989 -0.12448 2.38904 0.134513L1.03484 0.947987C0.609337 1.19814 0.297165 1.60326 0.163778 2.07848C-0.323868 3.85528 0.0429834 6.92176 4.56019 11.4395C8.15353 15.0326 10.8286 15.9988 12.6673 15.9988C13.0904 16.0006 13.5119 15.9456 13.9204 15.8351C14.3957 15.7019 14.8009 15.3897 15.0509 14.9641L15.8652 13.6107C16.1246 13.1797 15.999 12.621 15.5802 12.3426ZM15.4058 13.3371L14.5934 14.6913C14.4139 14.9985 14.1224 15.2244 13.7801 15.3216C12.1399 15.7719 9.27415 15.3989 4.93745 11.0622C0.600745 6.72554 0.227769 3.86009 0.678108 2.21955C0.775469 1.87685 1.00162 1.58505 1.3092 1.40526L2.66341 0.592852C2.85035 0.480368 3.09269 0.534891 3.21345 0.716552L4.38662 2.47789L5.37129 3.95473C5.48921 4.13305 5.45047 4.37204 5.28224 4.50399L4.06989 5.44704C3.70094 5.72915 3.59558 6.23961 3.82274 6.64474L3.919 6.81965C4.25977 7.44462 4.68342 8.2221 6.23013 9.76856C7.77684 11.315 8.55407 11.7387 9.17876 12.0794L9.35392 12.1759C9.75902 12.403 10.2695 12.2977 10.5516 11.9288L11.4947 10.7164C11.6266 10.5483 11.8655 10.5096 12.0439 10.6274L15.2821 12.787C15.4639 12.9077 15.5184 13.1502 15.4058 13.3371Z" fill="white"/>
</g></symbol><symbol id="phone_active" viewBox="0 0 16 16"><g fill="none">
<path d="M15.5802 12.3426L12.3417 10.1829C11.9307 9.91104 11.3798 10.0005 11.076 10.3885L10.1327 11.6013C10.0114 11.7612 9.79107 11.8076 9.61569 11.7101L9.43625 11.6112C8.8414 11.287 8.10126 10.8833 6.61001 9.39155C5.11876 7.89977 4.71429 7.15907 4.39006 6.56531L4.29167 6.38587C4.1929 6.21052 4.23839 5.98921 4.39831 5.86701L5.61038 4.92396C5.9982 4.6201 6.08778 4.06937 5.81622 3.65827L3.65654 0.419815C3.37824 0.00118918 2.81989 -0.12448 2.38904 0.134513L1.03484 0.947987C0.609337 1.19814 0.297165 1.60326 0.163778 2.07848C-0.323868 3.85528 0.0429834 6.92176 4.56019 11.4395C8.15353 15.0326 10.8286 15.9988 12.6673 15.9988C13.0904 16.0006 13.5119 15.9456 13.9204 15.8351C14.3957 15.7019 14.8009 15.3897 15.0509 14.9641L15.8652 13.6107C16.1246 13.1797 15.999 12.621 15.5802 12.3426ZM15.4058 13.3371L14.5934 14.6913C14.4139 14.9985 14.1224 15.2244 13.7801 15.3216C12.1399 15.7719 9.27415 15.3989 4.93745 11.0622C0.600745 6.72554 0.227769 3.86009 0.678108 2.21955C0.775469 1.87685 1.00162 1.58505 1.3092 1.40526L2.66341 0.592852C2.85035 0.480368 3.09269 0.534891 3.21345 0.716552L4.38662 2.47789L5.37129 3.95473C5.48921 4.13305 5.45047 4.37204 5.28224 4.50399L4.06989 5.44704C3.70094 5.72915 3.59558 6.23961 3.82274 6.64474L3.919 6.81965C4.25977 7.44462 4.68342 8.2221 6.23013 9.76856C7.77684 11.315 8.55407 11.7387 9.17876 12.0794L9.35392 12.1759C9.75902 12.403 10.2695 12.2977 10.5516 11.9288L11.4947 10.7164C11.6266 10.5483 11.8655 10.5096 12.0439 10.6274L15.2821 12.787C15.4639 12.9077 15.5184 13.1502 15.4058 13.3371Z" fill="#43E8FF"/>
</g></symbol><symbol id="settings" viewBox="0 0 34 34"><g fill="none">
<mask id="path-1-outside-1_203_1078" maskUnits="userSpaceOnUse" x="0" y="0" width="34" height="34" fill="black">
<rect fill="white" width="34" height="34"/>
<path d="M31.4 13.8H27.7365C27.5165 13.0626 27.219 12.3505 26.8491 11.6757L29.4464 9.0784C30.07 8.45607 30.0709 7.446 29.4486 6.82247C29.4479 6.82173 29.4471 6.821 29.4464 6.82027L27.1797 4.5536C26.5554 3.9318 25.5459 3.9318 24.9216 4.5536L22.3243 7.15093C21.6495 6.7812 20.9374 6.48387 20.2 6.264V2.6C20.2 1.71633 19.4837 1 18.6 1H15.4C14.5163 1 13.8 1.71633 13.8 2.6V6.264C13.0626 6.48387 12.3505 6.7812 11.6757 7.15093L9.0784 4.5536C8.45407 3.9318 7.4446 3.9318 6.82027 4.5536L4.5536 6.82027C3.93 7.4426 3.92907 8.45267 4.5514 9.0762C4.55213 9.07693 4.55287 9.07767 4.5536 9.0784L7.15093 11.6757C6.781 12.3505 6.48353 13.0626 6.26347 13.8H2.6C1.71633 13.8 1 14.5163 1 15.4V18.6C1 19.4837 1.71633 20.2 2.6 20.2H6.26347C6.48353 20.9374 6.781 21.6495 7.15093 22.3243L4.5536 24.9216C3.93 25.5439 3.92907 26.554 4.5514 27.1775C4.55213 27.1783 4.55287 27.179 4.5536 27.1797L6.82027 29.4464C7.4446 30.0682 8.45407 30.0682 9.0784 29.4464L11.6757 26.8491C12.3505 27.2189 13.0626 27.5162 13.8 27.736V31.4C13.8 32.2837 14.5163 33 15.4 33H18.6C19.4837 33 20.2 32.2837 20.2 31.4V27.736C20.9374 27.5162 21.6495 27.2189 22.3243 26.8491L24.9216 29.4464C25.5459 30.0682 26.5554 30.0682 27.1797 29.4464L29.4464 27.1797C30.0699 26.5574 30.0709 25.5473 29.4486 24.9238C29.4479 24.9231 29.4471 24.9223 29.4464 24.9216L26.8491 22.3243C27.219 21.6495 27.5165 20.9374 27.7365 20.2H31.4C32.2837 20.2 33 19.4837 33 18.6V15.4C33 14.5163 32.2837 13.8 31.4 13.8ZM31.9333 18.6C31.9333 18.8945 31.6945 19.1333 31.4 19.1333H27.3307C27.0871 19.1332 26.8745 19.298 26.8139 19.5339C26.5782 20.4502 26.2118 21.3279 25.7259 22.1397C25.6006 22.3496 25.634 22.6177 25.8069 22.7904L28.6923 25.6763C28.8992 25.8821 28.9 26.2168 28.6941 26.4237C28.6935 26.4243 28.6929 26.425 28.6923 26.4256L26.4256 28.6923C26.2161 28.8934 25.8852 28.8934 25.6757 28.6923L22.7904 25.8069C22.6178 25.6343 22.35 25.6009 22.1403 25.7259C21.3281 26.2115 20.4503 26.578 19.5339 26.8139C19.2981 26.8745 19.1332 27.0871 19.1333 27.3307V31.4C19.1333 31.6945 18.8945 31.9333 18.6 31.9333H15.4C15.1055 31.9333 14.8667 31.6945 14.8667 31.4V27.3307C14.8668 27.0871 14.702 26.8745 14.4661 26.8139C13.5497 26.578 12.6719 26.2115 11.8597 25.7259C11.65 25.6009 11.3822 25.6343 11.2096 25.8069L8.32427 28.6923C8.1148 28.8934 7.78387 28.8934 7.5744 28.6923L5.30773 26.4251C5.10187 26.2187 5.10187 25.8847 5.30773 25.6784L8.19307 22.7931C8.366 22.6203 8.3994 22.3523 8.27413 22.1424C7.7882 21.3305 7.4218 20.4529 7.18613 19.5365C7.12653 19.2997 6.9136 19.1335 6.66933 19.1333H2.6C2.30547 19.1333 2.06667 18.8945 2.06667 18.6V15.4C2.06667 15.1055 2.30547 14.8667 2.6 14.8667H6.66933C6.91287 14.8668 7.12553 14.7019 7.18613 14.4661C7.4218 13.5498 7.7882 12.6721 8.27413 11.8603C8.3994 11.6504 8.366 11.3823 8.19307 11.2096L5.30773 8.32373C5.10187 8.1174 5.10187 7.7834 5.30773 7.57707L7.5744 5.3104C7.78387 5.10927 8.1148 5.10927 8.32427 5.3104L11.2096 8.19573C11.3823 8.3682 11.6501 8.40133 11.8597 8.27627C12.6719 7.79007 13.5496 7.42313 14.4661 7.18667C14.7021 7.126 14.867 6.91307 14.8667 6.66933V2.6C14.8667 2.30547 15.1055 2.06667 15.4 2.06667H18.6C18.8945 2.06667 19.1333 2.30547 19.1333 2.6V6.66933C19.1332 6.91287 19.2981 7.12553 19.5339 7.18613C20.4503 7.42193 21.328 7.7882 22.1403 8.2736C22.3499 8.39867 22.6177 8.36553 22.7904 8.19307L25.6757 5.30773C25.8852 5.1066 26.2161 5.1066 26.4256 5.30773L28.6923 7.57493C28.8992 7.7808 28.9 8.11547 28.6941 8.3224C28.6935 8.323 28.6929 8.32367 28.6923 8.32427L25.8069 11.2096C25.634 11.3823 25.6006 11.6504 25.7259 11.8603C26.2118 12.6721 26.5782 13.5498 26.8139 14.4661C26.8745 14.7019 27.0871 14.8668 27.3307 14.8667H31.4C31.6945 14.8667 31.9333 15.1055 31.9333 15.4V18.6Z"/>
</mask>
<path d="M31.4 13.8H27.7365C27.5165 13.0626 27.219 12.3505 26.8491 11.6757L29.4464 9.0784C30.07 8.45607 30.0709 7.446 29.4486 6.82247C29.4479 6.82173 29.4471 6.821 29.4464 6.82027L27.1797 4.5536C26.5554 3.9318 25.5459 3.9318 24.9216 4.5536L22.3243 7.15093C21.6495 6.7812 20.9374 6.48387 20.2 6.264V2.6C20.2 1.71633 19.4837 1 18.6 1H15.4C14.5163 1 13.8 1.71633 13.8 2.6V6.264C13.0626 6.48387 12.3505 6.7812 11.6757 7.15093L9.0784 4.5536C8.45407 3.9318 7.4446 3.9318 6.82027 4.5536L4.5536 6.82027C3.93 7.4426 3.92907 8.45267 4.5514 9.0762C4.55213 9.07693 4.55287 9.07767 4.5536 9.0784L7.15093 11.6757C6.781 12.3505 6.48353 13.0626 6.26347 13.8H2.6C1.71633 13.8 1 14.5163 1 15.4V18.6C1 19.4837 1.71633 20.2 2.6 20.2H6.26347C6.48353 20.9374 6.781 21.6495 7.15093 22.3243L4.5536 24.9216C3.93 25.5439 3.92907 26.554 4.5514 27.1775C4.55213 27.1783 4.55287 27.179 4.5536 27.1797L6.82027 29.4464C7.4446 30.0682 8.45407 30.0682 9.0784 29.4464L11.6757 26.8491C12.3505 27.2189 13.0626 27.5162 13.8 27.736V31.4C13.8 32.2837 14.5163 33 15.4 33H18.6C19.4837 33 20.2 32.2837 20.2 31.4V27.736C20.9374 27.5162 21.6495 27.2189 22.3243 26.8491L24.9216 29.4464C25.5459 30.0682 26.5554 30.0682 27.1797 29.4464L29.4464 27.1797C30.0699 26.5574 30.0709 25.5473 29.4486 24.9238C29.4479 24.9231 29.4471 24.9223 29.4464 24.9216L26.8491 22.3243C27.219 21.6495 27.5165 20.9374 27.7365 20.2H31.4C32.2837 20.2 33 19.4837 33 18.6V15.4C33 14.5163 32.2837 13.8 31.4 13.8ZM31.9333 18.6C31.9333 18.8945 31.6945 19.1333 31.4 19.1333H27.3307C27.0871 19.1332 26.8745 19.298 26.8139 19.5339C26.5782 20.4502 26.2118 21.3279 25.7259 22.1397C25.6006 22.3496 25.634 22.6177 25.8069 22.7904L28.6923 25.6763C28.8992 25.8821 28.9 26.2168 28.6941 26.4237C28.6935 26.4243 28.6929 26.425 28.6923 26.4256L26.4256 28.6923C26.2161 28.8934 25.8852 28.8934 25.6757 28.6923L22.7904 25.8069C22.6178 25.6343 22.35 25.6009 22.1403 25.7259C21.3281 26.2115 20.4503 26.578 19.5339 26.8139C19.2981 26.8745 19.1332 27.0871 19.1333 27.3307V31.4C19.1333 31.6945 18.8945 31.9333 18.6 31.9333H15.4C15.1055 31.9333 14.8667 31.6945 14.8667 31.4V27.3307C14.8668 27.0871 14.702 26.8745 14.4661 26.8139C13.5497 26.578 12.6719 26.2115 11.8597 25.7259C11.65 25.6009 11.3822 25.6343 11.2096 25.8069L8.32427 28.6923C8.1148 28.8934 7.78387 28.8934 7.5744 28.6923L5.30773 26.4251C5.10187 26.2187 5.10187 25.8847 5.30773 25.6784L8.19307 22.7931C8.366 22.6203 8.3994 22.3523 8.27413 22.1424C7.7882 21.3305 7.4218 20.4529 7.18613 19.5365C7.12653 19.2997 6.9136 19.1335 6.66933 19.1333H2.6C2.30547 19.1333 2.06667 18.8945 2.06667 18.6V15.4C2.06667 15.1055 2.30547 14.8667 2.6 14.8667H6.66933C6.91287 14.8668 7.12553 14.7019 7.18613 14.4661C7.4218 13.5498 7.7882 12.6721 8.27413 11.8603C8.3994 11.6504 8.366 11.3823 8.19307 11.2096L5.30773 8.32373C5.10187 8.1174 5.10187 7.7834 5.30773 7.57707L7.5744 5.3104C7.78387 5.10927 8.1148 5.10927 8.32427 5.3104L11.2096 8.19573C11.3823 8.3682 11.6501 8.40133 11.8597 8.27627C12.6719 7.79007 13.5496 7.42313 14.4661 7.18667C14.7021 7.126 14.867 6.91307 14.8667 6.66933V2.6C14.8667 2.30547 15.1055 2.06667 15.4 2.06667H18.6C18.8945 2.06667 19.1333 2.30547 19.1333 2.6V6.66933C19.1332 6.91287 19.2981 7.12553 19.5339 7.18613C20.4503 7.42193 21.328 7.7882 22.1403 8.2736C22.3499 8.39867 22.6177 8.36553 22.7904 8.19307L25.6757 5.30773C25.8852 5.1066 26.2161 5.1066 26.4256 5.30773L28.6923 7.57493C28.8992 7.7808 28.9 8.11547 28.6941 8.3224C28.6935 8.323 28.6929 8.32367 28.6923 8.32427L25.8069 11.2096C25.634 11.3823 25.6006 11.6504 25.7259 11.8603C26.2118 12.6721 26.5782 13.5498 26.8139 14.4661C26.8745 14.7019 27.0871 14.8668 27.3307 14.8667H31.4C31.6945 14.8667 31.9333 15.1055 31.9333 15.4V18.6Z" fill="white"/>
<path d="M31.4 13.8H27.7365C27.5165 13.0626 27.219 12.3505 26.8491 11.6757L29.4464 9.0784C30.07 8.45607 30.0709 7.446 29.4486 6.82247C29.4479 6.82173 29.4471 6.821 29.4464 6.82027L27.1797 4.5536C26.5554 3.9318 25.5459 3.9318 24.9216 4.5536L22.3243 7.15093C21.6495 6.7812 20.9374 6.48387 20.2 6.264V2.6C20.2 1.71633 19.4837 1 18.6 1H15.4C14.5163 1 13.8 1.71633 13.8 2.6V6.264C13.0626 6.48387 12.3505 6.7812 11.6757 7.15093L9.0784 4.5536C8.45407 3.9318 7.4446 3.9318 6.82027 4.5536L4.5536 6.82027C3.93 7.4426 3.92907 8.45267 4.5514 9.0762C4.55213 9.07693 4.55287 9.07767 4.5536 9.0784L7.15093 11.6757C6.781 12.3505 6.48353 13.0626 6.26347 13.8H2.6C1.71633 13.8 1 14.5163 1 15.4V18.6C1 19.4837 1.71633 20.2 2.6 20.2H6.26347C6.48353 20.9374 6.781 21.6495 7.15093 22.3243L4.5536 24.9216C3.93 25.5439 3.92907 26.554 4.5514 27.1775C4.55213 27.1783 4.55287 27.179 4.5536 27.1797L6.82027 29.4464C7.4446 30.0682 8.45407 30.0682 9.0784 29.4464L11.6757 26.8491C12.3505 27.2189 13.0626 27.5162 13.8 27.736V31.4C13.8 32.2837 14.5163 33 15.4 33H18.6C19.4837 33 20.2 32.2837 20.2 31.4V27.736C20.9374 27.5162 21.6495 27.2189 22.3243 26.8491L24.9216 29.4464C25.5459 30.0682 26.5554 30.0682 27.1797 29.4464L29.4464 27.1797C30.0699 26.5574 30.0709 25.5473 29.4486 24.9238C29.4479 24.9231 29.4471 24.9223 29.4464 24.9216L26.8491 22.3243C27.219 21.6495 27.5165 20.9374 27.7365 20.2H31.4C32.2837 20.2 33 19.4837 33 18.6V15.4C33 14.5163 32.2837 13.8 31.4 13.8ZM31.9333 18.6C31.9333 18.8945 31.6945 19.1333 31.4 19.1333H27.3307C27.0871 19.1332 26.8745 19.298 26.8139 19.5339C26.5782 20.4502 26.2118 21.3279 25.7259 22.1397C25.6006 22.3496 25.634 22.6177 25.8069 22.7904L28.6923 25.6763C28.8992 25.8821 28.9 26.2168 28.6941 26.4237C28.6935 26.4243 28.6929 26.425 28.6923 26.4256L26.4256 28.6923C26.2161 28.8934 25.8852 28.8934 25.6757 28.6923L22.7904 25.8069C22.6178 25.6343 22.35 25.6009 22.1403 25.7259C21.3281 26.2115 20.4503 26.578 19.5339 26.8139C19.2981 26.8745 19.1332 27.0871 19.1333 27.3307V31.4C19.1333 31.6945 18.8945 31.9333 18.6 31.9333H15.4C15.1055 31.9333 14.8667 31.6945 14.8667 31.4V27.3307C14.8668 27.0871 14.702 26.8745 14.4661 26.8139C13.5497 26.578 12.6719 26.2115 11.8597 25.7259C11.65 25.6009 11.3822 25.6343 11.2096 25.8069L8.32427 28.6923C8.1148 28.8934 7.78387 28.8934 7.5744 28.6923L5.30773 26.4251C5.10187 26.2187 5.10187 25.8847 5.30773 25.6784L8.19307 22.7931C8.366 22.6203 8.3994 22.3523 8.27413 22.1424C7.7882 21.3305 7.4218 20.4529 7.18613 19.5365C7.12653 19.2997 6.9136 19.1335 6.66933 19.1333H2.6C2.30547 19.1333 2.06667 18.8945 2.06667 18.6V15.4C2.06667 15.1055 2.30547 14.8667 2.6 14.8667H6.66933C6.91287 14.8668 7.12553 14.7019 7.18613 14.4661C7.4218 13.5498 7.7882 12.6721 8.27413 11.8603C8.3994 11.6504 8.366 11.3823 8.19307 11.2096L5.30773 8.32373C5.10187 8.1174 5.10187 7.7834 5.30773 7.57707L7.5744 5.3104C7.78387 5.10927 8.1148 5.10927 8.32427 5.3104L11.2096 8.19573C11.3823 8.3682 11.6501 8.40133 11.8597 8.27627C12.6719 7.79007 13.5496 7.42313 14.4661 7.18667C14.7021 7.126 14.867 6.91307 14.8667 6.66933V2.6C14.8667 2.30547 15.1055 2.06667 15.4 2.06667H18.6C18.8945 2.06667 19.1333 2.30547 19.1333 2.6V6.66933C19.1332 6.91287 19.2981 7.12553 19.5339 7.18613C20.4503 7.42193 21.328 7.7882 22.1403 8.2736C22.3499 8.39867 22.6177 8.36553 22.7904 8.19307L25.6757 5.30773C25.8852 5.1066 26.2161 5.1066 26.4256 5.30773L28.6923 7.57493C28.8992 7.7808 28.9 8.11547 28.6941 8.3224C28.6935 8.323 28.6929 8.32367 28.6923 8.32427L25.8069 11.2096C25.634 11.3823 25.6006 11.6504 25.7259 11.8603C26.2118 12.6721 26.5782 13.5498 26.8139 14.4661C26.8745 14.7019 27.0871 14.8668 27.3307 14.8667H31.4C31.6945 14.8667 31.9333 15.1055 31.9333 15.4V18.6Z" stroke="white" stroke-width="0.4" mask="url(#path-1-outside-1_203_1078)"/>
<path d="M17.0001 11.5666H17C13.9993 11.5666 11.5667 13.9992 11.5667 17C11.5667 20.0007 13.9993 22.4333 17 22.4333C20.0008 22.4333 22.4334 20.0007 22.4334 17V16.9999C22.4301 14.0005 19.9995 11.5699 17.0001 11.5666ZM16.9999 21.1666C14.6988 21.1666 12.8334 19.3011 12.8334 17C12.8334 14.6988 14.6988 12.8333 17 12.8333C19.3012 12.8333 21.1666 14.6987 21.1667 16.9998C21.1641 19.3 19.3001 21.164 16.9999 21.1666Z" fill="white" stroke="white" stroke-width="0.2"/>
</g></symbol><symbol id="star" viewBox="0 0 16 16"><g fill="none">
<path d="M15.2356 5.86455L10.6244 5.16017L8.55751 0.757671C8.40313 0.428921 7.86376 0.428921 7.70938 0.757671L5.64313 5.16017L1.03189 5.86455C0.653135 5.92267 0.501885 6.3833 0.76751 6.65517L4.11751 10.0889L3.32564 14.9433C3.26251 15.3289 3.67438 15.6183 4.01501 15.4289L8.13376 13.1527L12.2525 15.4295C12.59 15.617 13.0056 15.3333 12.9419 14.9439L12.15 10.0895L15.5 6.6558C15.7656 6.3833 15.6138 5.92267 15.2356 5.86455Z" fill="#43E8FF"/>
</g></symbol><symbol id="events" viewBox="0 0 24 24"><g fill="">
<path d="M7 2H8C8.26522 2 8.51957 2.10536 8.70711 2.29289C8.89464 2.48043 9 2.73478 9 3V4H14V3C14 2.73478 14.1054 2.48043 14.2929 2.29289C14.4804 2.10536 14.7348 2 15 2H16C16.2652 2 16.5196 2.10536 16.7071 2.29289C16.8946 2.48043 17 2.73478 17 3V4C17.7956 4 18.5587 4.31607 19.1213 4.87868C19.6839 5.44129 20 6.20435 20 7V18C20 18.7956 19.6839 19.5587 19.1213 20.1213C18.5587 20.6839 17.7956 21 17 21H6C5.20435 21 4.44129 20.6839 3.87868 20.1213C3.31607 19.5587 3 18.7956 3 18V7C3 6.20435 3.31607 5.44129 3.87868 4.87868C4.44129 4.31607 5.20435 4 6 4V3C6 2.73478 6.10536 2.48043 6.29289 2.29289C6.48043 2.10536 6.73478 2 7 2ZM15 4H16V3H15V4ZM8 4V3H7V4H8ZM6 5C5.46957 5 4.96086 5.21071 4.58579 5.58579C4.21071 5.96086 4 6.46957 4 7V8H19V7C19 6.46957 18.7893 5.96086 18.4142 5.58579C18.0391 5.21071 17.5304 5 17 5H6ZM4 18C4 18.5304 4.21071 19.0391 4.58579 19.4142C4.96086 19.7893 5.46957 20 6 20H17C17.5304 20 18.0391 19.7893 18.4142 19.4142C18.7893 19.0391 19 18.5304 19 18V9H4V18ZM12 13H17V18H12V13ZM13 14V17H16V14H13Z" fill=""/>
</g></symbol><symbol id="home" viewBox="0 0 18 18"><g fill="">
<path d="M17.4288 7.90363L9.41951 0.170579C9.18619 -0.0568596 8.81404 -0.0568596 8.58072 0.170579L0.571694 7.90333C0.453785 8.01712 0.387207 8.17394 0.387207 8.33782C0.387207 8.67135 0.657597 8.94171 0.991092 8.94171H2.05544V17.3961C2.05544 17.7296 2.32579 18 2.65932 18H6.88652C7.22005 18 7.4904 17.7296 7.4904 17.3961V12.565H10.5098V17.3961C10.5098 17.7296 10.7802 18 11.1137 18H15.3409C15.6744 18 15.9448 17.7296 15.9448 17.3961V8.94171H17.0091C17.1729 8.94171 17.3295 8.87524 17.4433 8.75752C17.6751 8.5177 17.6686 8.13541 17.4288 7.90363ZM15.9448 8.33782C15.6113 8.33782 15.3409 8.60817 15.3409 8.94171V17.3961H11.1137V12.565C11.1137 12.2315 10.8434 11.9611 10.5098 11.9611H7.4904C7.15687 11.9611 6.88652 12.2315 6.88652 12.565V17.3961H2.65932V8.94171C2.65932 8.60817 2.38897 8.33782 2.05544 8.33782H0.991092L9.00012 0.605074L17.0122 8.33782H15.9448Z" fill=""/>
</g></symbol><symbol id="organizations" viewBox="0 0 24 24"><g fill="">
<g clip-path="url(#clip0_205_51)">
<path d="M14 4L11 7H3C2.20435 7 1.44129 7.31607 0.87868 7.87868C0.31607 8.44129 0 9.20435 0 10L0 13C0 13.7956 0.31607 14.5587 0.87868 15.1213C1.44129 15.6839 2.20435 16 3 16V19C3 19.5304 3.21071 20.0391 3.58579 20.4142C3.96086 20.7893 4.46957 21 5 21H6C6.53043 21 7.03914 20.7893 7.41421 20.4142C7.78929 20.0391 8 19.5304 8 19V16H11L14 19H16V4H14ZM14.414 5H15V18H14.414L11.414 15H3C2.46957 15 1.96086 14.7893 1.58579 14.4142C1.21071 14.0391 1 13.5304 1 13V10C1 9.46957 1.21071 8.96086 1.58579 8.58579C1.96086 8.21071 2.46957 8 3 8H11.414L14.414 5ZM18 7V8.008C18.8331 8.1284 19.5949 8.54494 20.1459 9.1813C20.6969 9.81766 21.0002 10.6312 21.0002 11.473C21.0002 12.3148 20.6969 13.1283 20.1459 13.7647C19.5949 14.4011 18.8331 14.8176 18 14.938V15.945C19.1007 15.8228 20.1177 15.2989 20.8563 14.4737C21.5949 13.6485 22.0033 12.58 22.0033 11.4725C22.0033 10.365 21.5949 9.29646 20.8563 8.47128C20.1177 7.64609 19.1007 7.12225 18 7ZM18 10.059V12.887C18.2923 12.7835 18.5454 12.592 18.7243 12.3388C18.9033 12.0855 18.9994 11.7831 18.9994 11.473C18.9994 11.1629 18.9033 10.8605 18.7243 10.6072C18.5454 10.354 18.2923 10.1625 18 10.059ZM4 16H7V19C7 19.2652 6.89464 19.5196 6.70711 19.7071C6.51957 19.8946 6.26522 20 6 20H5C4.73478 20 4.48043 19.8946 4.29289 19.7071C4.10536 19.5196 4 19.2652 4 19V16Z" fill=""/>
</g>

</g></symbol><symbol id="user" viewBox="0 0 17 18"><g fill="">
<path d="M8.5 0.611084C3.8131 0.611084 0 4.42418 0 9.11108C0 11.1638 0.731567 13.0489 1.94763 14.5194C1.95075 14.5236 1.95103 14.529 1.95443 14.533C2.83248 15.5918 3.93522 16.4035 5.16403 16.928C5.1782 16.9339 5.19208 16.9404 5.20625 16.9464C5.3057 16.9883 5.40628 17.0271 5.50715 17.0651C5.54682 17.0801 5.58648 17.0954 5.62672 17.1099C5.7137 17.141 5.80125 17.1705 5.88937 17.1988C5.94575 17.217 6.00213 17.2348 6.05908 17.2518C6.137 17.275 6.2152 17.2974 6.29397 17.3187C6.3631 17.3374 6.4328 17.3547 6.5025 17.3714C6.57305 17.3884 6.64388 17.4054 6.715 17.4204C6.79433 17.4374 6.87452 17.4524 6.95498 17.4672C7.01958 17.4791 7.0839 17.4915 7.14907 17.502C7.23832 17.5165 7.32813 17.5278 7.41823 17.5394C7.47632 17.5468 7.53412 17.5553 7.59248 17.5615C7.69448 17.5723 7.79733 17.5799 7.90047 17.587C7.94835 17.5904 7.99595 17.5955 8.04412 17.5981C8.19457 17.6066 8.34672 17.6111 8.5 17.6111C8.65328 17.6111 8.80543 17.6066 8.95645 17.5986C9.00462 17.5961 9.05222 17.591 9.1001 17.5876C9.20323 17.5802 9.30608 17.5728 9.40808 17.5621C9.46645 17.5558 9.52425 17.5473 9.58233 17.54C9.67243 17.5284 9.76225 17.517 9.8515 17.5026C9.91638 17.4921 9.98098 17.4796 10.0456 17.4677C10.1258 17.453 10.2059 17.438 10.2856 17.421C10.3567 17.4057 10.4272 17.389 10.4981 17.372C10.5678 17.3549 10.6375 17.3377 10.7066 17.3193C10.7854 17.2983 10.8636 17.2756 10.9415 17.2524C10.9984 17.2354 11.0548 17.2175 11.1112 17.1994C11.1993 17.1711 11.2869 17.1416 11.3739 17.1104C11.4138 17.096 11.4535 17.0807 11.4934 17.0657C11.5946 17.0277 11.6949 16.9886 11.7943 16.947C11.8085 16.941 11.8224 16.9345 11.8365 16.9285C13.0651 16.4041 14.1681 15.5923 15.0461 14.5335C15.0495 14.5296 15.0498 14.5239 15.0529 14.5199C16.2684 13.0489 17 11.1638 17 9.11108C17 4.42418 13.1869 0.611084 8.5 0.611084ZM11.9445 16.2568C11.9402 16.2587 11.9363 16.261 11.932 16.263C11.8309 16.3117 11.728 16.3576 11.6243 16.4024C11.6008 16.4123 11.5776 16.4225 11.554 16.4324C11.4634 16.4704 11.3716 16.5064 11.2792 16.5409C11.2407 16.5554 11.2022 16.5696 11.1633 16.5832C11.0815 16.6123 10.9993 16.6404 10.9163 16.667C10.8647 16.6835 10.8128 16.699 10.761 16.7143C10.6873 16.7364 10.6134 16.7577 10.5386 16.7775C10.4757 16.7942 10.4122 16.8095 10.3488 16.8246C10.2822 16.8404 10.2159 16.8566 10.1487 16.8707C10.0753 16.8863 10.0014 16.8996 9.92772 16.913C9.86793 16.924 9.80843 16.9356 9.74808 16.9453C9.66507 16.9583 9.5812 16.9688 9.49762 16.9792C9.44463 16.9861 9.39193 16.994 9.33838 16.9997C9.2429 17.0098 9.14657 17.0164 9.05052 17.0232C9.00773 17.026 8.96523 17.0308 8.92188 17.0331C8.78163 17.0405 8.6411 17.0444 8.5 17.0444C8.3589 17.0444 8.21837 17.0405 8.0784 17.0331C8.03533 17.0308 7.99283 17.0263 7.94977 17.0232C7.85343 17.0167 7.75738 17.0098 7.6619 16.9997C7.60835 16.994 7.55565 16.9861 7.50267 16.9792C7.41908 16.9688 7.33522 16.9583 7.2522 16.9453C7.19185 16.9356 7.13235 16.924 7.07257 16.913C6.99862 16.8996 6.92467 16.886 6.85157 16.8707C6.78442 16.8566 6.71783 16.8404 6.65153 16.8246C6.58807 16.8092 6.5246 16.7942 6.4617 16.7775C6.38718 16.7577 6.31295 16.7362 6.23928 16.7143C6.18743 16.699 6.13558 16.6835 6.08402 16.667C6.001 16.6404 5.91855 16.6123 5.83695 16.5832C5.79813 16.5693 5.7596 16.5551 5.72107 16.5409C5.6287 16.5064 5.5369 16.4704 5.44623 16.4324C5.42272 16.4228 5.39977 16.4126 5.37625 16.4027C5.27255 16.3582 5.1697 16.312 5.06827 16.2633C5.06402 16.2613 5.06005 16.2593 5.0558 16.257C4.06725 15.7788 3.19402 15.0999 2.4854 14.2754C3.03308 12.2586 4.58348 10.6329 6.57815 9.98602C6.61753 10.0101 6.65862 10.0316 6.69913 10.0543C6.72293 10.0676 6.74645 10.0818 6.77053 10.0945C6.85497 10.1393 6.94053 10.1812 7.02808 10.2189C7.09523 10.2484 7.16465 10.2733 7.23378 10.2988C7.24738 10.3036 7.26098 10.309 7.27458 10.3138C7.65878 10.4498 8.0699 10.5278 8.5 10.5278C8.9301 10.5278 9.34122 10.4498 9.72513 10.3138C9.73873 10.309 9.75233 10.3036 9.76593 10.2988C9.83507 10.2733 9.90448 10.2484 9.97163 10.2189C10.0592 10.1812 10.1447 10.1393 10.2292 10.0945C10.2533 10.0815 10.2768 10.0676 10.3006 10.0543C10.3411 10.0316 10.3825 10.0101 10.4221 9.98573C12.4168 10.6329 13.9669 12.2586 14.5149 14.2751C13.8063 15.0993 12.933 15.7782 11.9445 16.2568ZM5.38333 6.84442C5.38333 5.126 6.78158 3.72775 8.5 3.72775C10.2184 3.72775 11.6167 5.126 11.6167 6.84442C11.6167 7.93752 11.0497 8.89943 10.1955 9.4559C10.0838 9.52843 9.96767 9.59332 9.84838 9.64998C9.83422 9.65678 9.82033 9.66387 9.80617 9.67038C8.98563 10.0435 8.01437 10.0435 7.19383 9.67038C7.17967 9.66387 7.1655 9.65678 7.15162 9.64998C7.03205 9.59332 6.91617 9.52843 6.80453 9.4559C5.95028 8.89943 5.38333 7.93752 5.38333 6.84442ZM14.9399 13.7359C14.2976 11.8393 12.8322 10.3065 10.9599 9.5783C11.7087 8.90368 12.1833 7.92958 12.1833 6.84442C12.1833 4.81348 10.5309 3.16108 8.5 3.16108C6.46907 3.16108 4.81667 4.81348 4.81667 6.84442C4.81667 7.92958 5.29125 8.90368 6.04038 9.5783C4.16812 10.3068 2.70272 11.8393 2.0604 13.7359C1.12172 12.4329 0.566667 10.836 0.566667 9.11108C0.566667 4.7367 4.12562 1.17775 8.5 1.17775C12.8744 1.17775 16.4333 4.7367 16.4333 9.11108C16.4333 10.836 15.8783 12.4329 14.9399 13.7359Z" fill=""/>
</g></symbol></svg>